# xmcd CD database file
#
# Track frame offsets:
#	150
#	44246
#	69669
#	97166
#	125445
#	163362
#	191125
#	209238
#	256192
#
# Disc length: 3638 seconds
#
# Revision: 0
# Processed by: cddbd v1.5.2PL0 Copyright (c) Steve Scherf et al.
# Submitted via: CDex 1.79
#
DISCID=980e3409
DTITLE=Ralph Alessi - Imaginary Friends
DYEAR=2019
DGENRE=Jazz
TTITLE0=Iram Issela
TTITLE1=Oxide
TTITLE2=Improper Authorities
TTITLE3=Pittance
TTITLE4=Fun Room
TTITLE5=Imaginary Friends
TTITLE6=Around The Corner
TTITLE7=Melee
TTITLE8=Goos Boy
EXTD=YEAR: 2019
EXTT0=
EXTT1=
EXTT2=
EXTT3=
EXTT4=
EXTT5=
EXTT6=
EXTT7=
EXTT8=
PLAYORDER=
